<svg width="30" height="30" viewBox="0 0 30 30" fill="none" xmlns="http://www.w3.org/2000/svg">
<path d="M25 15C25 20.5228 20.5228 25 15 25M25 15C25 9.47715 20.5228 5 15 5M25 15H27.5M15 25C9.47715 25 5 20.5228 5 15M15 25V27.5M5 15C5 9.47715 9.47715 5 15 5M5 15H2.5M15 5V2.5M18.75 15C18.75 17.0711 17.0711 18.75 15 18.75C12.9289 18.75 11.25 17.0711 11.25 15C11.25 12.9289 12.9289 11.25 15 11.25C17.0711 11.25 18.75 12.9289 18.75 15Z" stroke="#F87245" stroke-width="2" stroke-linecap="round" stroke-linejoin="round"/>
</svg>
