<svg width="29" height="29" viewBox="0 0 29 29" fill="none" xmlns="http://www.w3.org/2000/svg">
<path fill-rule="evenodd" clip-rule="evenodd" d="M20.5384 17.9204C19.572 16.822 17.9605 16.5266 16.7498 17.5323C15.539 18.5381 15.3685 20.2197 16.3194 21.4093C17.2702 22.5988 20.5384 25.3751 20.5384 25.3751C20.5384 25.3751 23.8065 22.5988 24.7574 21.4093C25.7082 20.2197 25.5585 18.5275 24.3269 17.5323C23.0954 16.5371 21.5047 16.822 20.5384 17.9204Z" fill="white"/>
<path d="M24.1667 12.0834V8.21675C24.1667 6.18656 24.1667 5.17146 23.7716 4.39603C23.424 3.71394 22.8695 3.15939 22.1874 2.81185C21.412 2.41675 20.3969 2.41675 18.3667 2.41675H10.6333C8.60315 2.41675 7.58805 2.41675 6.81262 2.81185C6.13053 3.15939 5.57598 3.71394 5.22844 4.39603C4.83334 5.17146 4.83334 6.18656 4.83334 8.21675V20.7834C4.83334 22.8136 4.83334 23.8287 5.22844 24.6041C5.57598 25.2862 6.13053 25.8408 6.81262 26.1883C7.58805 26.5834 8.60315 26.5834 10.6333 26.5834H14.5M15.1042 13.2917H9.66667M10.875 18.1251H9.66667M19.3333 8.45841H9.66667M20.5384 17.9204C19.572 16.822 17.9605 16.5266 16.7498 17.5323C15.539 18.5381 15.3685 20.2197 16.3194 21.4093C17.2702 22.5988 20.5384 25.3751 20.5384 25.3751C20.5384 25.3751 23.8065 22.5988 24.7574 21.4093C25.7082 20.2197 25.5585 18.5275 24.3269 17.5323C23.0954 16.5371 21.5047 16.822 20.5384 17.9204Z" stroke="#BFBFBF" stroke-width="2.5" stroke-linecap="round" stroke-linejoin="round"/>
</svg>
