<svg width="30" height="30" viewBox="0 0 30 30" fill="none" xmlns="http://www.w3.org/2000/svg">
<path d="M22.5 5.59977C20.5109 3.61064 17.813 2.49316 15 2.49316C12.187 2.49316 9.48913 3.61064 7.5 5.59977C5.51088 7.58889 4.3934 10.2867 4.3934 13.0998C4.3934 15.9128 5.51088 18.6106 7.5 20.5998L14.0875 27.1998C14.2037 27.3169 14.342 27.4099 14.4943 27.4734C14.6466 27.5368 14.81 27.5695 14.975 27.5695C15.14 27.5695 15.3034 27.5368 15.4557 27.4734C15.608 27.4099 15.7463 27.3169 15.8625 27.1998L22.5 20.5373C24.4808 18.5564 25.5936 15.8698 25.5936 13.0685C25.5936 10.2672 24.4808 7.58061 22.5 5.59977V5.59977ZM20.7125 18.7498L15 24.4873L9.2875 18.7498C8.15893 17.6202 7.3906 16.1813 7.07962 14.6151C6.76865 13.0489 6.92899 11.4257 7.54038 9.95062C8.15178 8.47553 9.18677 7.21483 10.5145 6.32786C11.8423 5.4409 13.4032 4.96749 15 4.96749C16.5968 4.96749 18.1577 5.4409 19.4855 6.32786C20.8132 7.21483 21.8482 8.47553 22.4596 9.95062C23.071 11.4257 23.2314 13.0489 22.9204 14.6151C22.6094 16.1813 21.8411 17.6202 20.7125 18.7498V18.7498ZM11.25 9.26227C10.2409 10.2745 9.67425 11.6455 9.67425 13.0748C9.67425 14.5041 10.2409 15.8751 11.25 16.8873C11.9997 17.6383 12.9545 18.1511 13.9946 18.3615C15.0346 18.5719 16.1137 18.4705 17.0963 18.07C18.079 17.6694 18.9215 16.9876 19.5181 16.1101C20.1147 15.2325 20.4389 14.1984 20.45 13.1373C20.4556 12.4288 20.3192 11.7263 20.0486 11.0715C19.7781 10.4167 19.379 9.82271 18.875 9.32477C18.3796 8.81799 17.7889 8.41419 17.1368 8.1366C16.4847 7.85901 15.7842 7.71311 15.0755 7.7073C14.3668 7.70149 13.664 7.83589 13.0075 8.10275C12.3509 8.36961 11.7537 8.76368 11.25 9.26227V9.26227ZM17.1125 15.1123C16.6388 15.5932 16.0128 15.8946 15.3414 15.9651C14.6701 16.0355 13.9951 15.8706 13.4319 15.4984C12.8687 15.1263 12.4523 14.5701 12.2538 13.9249C12.0553 13.2797 12.0871 12.5856 12.3437 11.9612C12.6003 11.3369 13.0659 10.821 13.6607 10.5019C14.2556 10.1828 14.9428 10.0803 15.6049 10.2118C16.267 10.3433 16.8629 10.7007 17.2906 11.2229C17.7184 11.7451 17.9515 12.3997 17.95 13.0748C17.9318 13.8464 17.6081 14.5792 17.05 15.1123H17.1125Z" fill="#F97345"/>
</svg>
