<svg width="29" height="29" viewBox="0 0 29 29" fill="none" xmlns="http://www.w3.org/2000/svg">
<path fill-rule="evenodd" clip-rule="evenodd" d="M20.5383 17.9201C19.572 16.8218 17.9605 16.5263 16.7497 17.5321C15.539 18.5379 15.3685 20.2195 16.3193 21.409C17.2702 22.5985 20.5383 25.3748 20.5383 25.3748C20.5383 25.3748 23.8065 22.5985 24.7573 21.409C25.7082 20.2195 25.5585 18.5273 24.3269 17.5321C23.0953 16.5369 21.5047 16.8218 20.5383 17.9201Z" fill="white"/>
<path d="M24.1666 12.0832V8.2165C24.1666 6.18631 24.1666 5.17122 23.7715 4.39579C23.424 3.7137 22.8694 3.15915 22.1874 2.81161C21.4119 2.4165 20.3968 2.4165 18.3666 2.4165H10.6333C8.60312 2.4165 7.58803 2.4165 6.8126 2.81161C6.13051 3.15915 5.57596 3.7137 5.22841 4.39579C4.83331 5.17122 4.83331 6.18631 4.83331 8.2165V20.7832C4.83331 22.8134 4.83331 23.8285 5.22841 24.6039C5.57596 25.286 6.13051 25.8405 6.8126 26.1881C7.58803 26.5832 8.60312 26.5832 10.6333 26.5832H14.5M15.1041 13.2915H9.66665M10.875 18.1248H9.66665M19.3333 8.45817H9.66665M20.5383 17.9201C19.572 16.8218 17.9605 16.5263 16.7497 17.5321C15.539 18.5379 15.3685 20.2195 16.3193 21.409C17.2702 22.5985 20.5383 25.3748 20.5383 25.3748C20.5383 25.3748 23.8065 22.5985 24.7573 21.409C25.7082 20.2195 25.5585 18.5273 24.3269 17.5321C23.0953 16.5369 21.5047 16.8218 20.5383 17.9201Z" stroke="#F97345" stroke-width="2.5" stroke-linecap="round" stroke-linejoin="round"/>
</svg>
