<svg width="25" height="25" viewBox="0 0 25 25" fill="none" xmlns="http://www.w3.org/2000/svg">
<path d="M4.26399 25H20.736C23.5877 25 25 23.5877 25 20.7903V4.20967C25 1.41228 23.5877 0 20.736 0H4.26399C1.42586 0 0 1.3987 0 4.20967V20.7903C0 23.6013 1.42586 25 4.26399 25ZM10.6464 19.446C10.1847 19.446 9.81803 19.2423 9.43781 18.7806L5.52689 13.9462C5.32319 13.6882 5.20098 13.3623 5.20098 13.0636C5.20098 12.4253 5.68984 11.9364 6.30092 11.9364C6.69473 11.9364 7.02064 12.0858 7.34655 12.5068L10.5921 16.7029L16.893 6.58609C17.1646 6.16513 17.5177 5.96143 17.8707 5.96143C18.4682 5.96143 19.0386 6.35524 19.0386 7.00706C19.0386 7.30581 18.8756 7.63172 18.6991 7.90331L11.7871 18.7806C11.5019 19.2287 11.1217 19.446 10.6464 19.446Z" fill="#FF981D"/>
</svg>
