<svg width="141" height="141" viewBox="0 0 141 141" fill="none" xmlns="http://www.w3.org/2000/svg">
<path d="M106.102 135.125H115.855C120.79 135.125 124.844 131.306 125.431 126.489L135.125 29.6688H105.75V5.875H94.1763V29.6688H64.9775L66.74 43.4162C76.7862 46.1775 86.1862 51.1712 91.8262 56.6937C100.286 65.0362 106.102 73.6725 106.102 87.7725V135.125ZM5.875 129.25V123.375H94.1763V129.25C94.1763 132.423 91.5325 135.125 88.125 135.125H11.75C8.51875 135.125 5.875 132.423 5.875 129.25ZM94.1763 88.125C94.1763 41.125 5.875 41.125 5.875 88.125H94.1763ZM5.875 99.875H94V111.625H5.875V99.875Z" fill="url(#paint0_linear_212_429)"/>
<defs>
<linearGradient id="paint0_linear_212_429" x1="70.5" y1="5.875" x2="70.5" y2="135.125" gradientUnits="userSpaceOnUse">
<stop stop-color="#F87245"/>
<stop offset="1" stop-color="#FF981D"/>
</linearGradient>
</defs>
</svg>
