<svg width="30" height="30" viewBox="0 0 30 30" fill="none" xmlns="http://www.w3.org/2000/svg">
<path d="M25 10.0001L17.5 3.42513C16.8125 2.81019 15.9224 2.47021 15 2.47021C14.0776 2.47021 13.1875 2.81019 12.5 3.42513L5 10.0001C4.60296 10.3552 4.28612 10.7908 4.07059 11.2779C3.85505 11.765 3.74576 12.2925 3.75 12.8251V23.7501C3.75 24.7447 4.14508 25.6985 4.84835 26.4018C5.55161 27.105 6.50543 27.5001 7.5 27.5001H22.5C23.4946 27.5001 24.4484 27.105 25.1516 26.4018C25.8549 25.6985 26.25 24.7447 26.25 23.7501V12.8126C26.2525 12.2821 26.1423 11.7571 25.9268 11.2722C25.7114 10.7874 25.3955 10.3538 25 10.0001ZM17.5 25.0001H12.5V18.7501C12.5 18.4186 12.6317 18.1007 12.8661 17.8662C13.1005 17.6318 13.4185 17.5001 13.75 17.5001H16.25C16.5815 17.5001 16.8995 17.6318 17.1339 17.8662C17.3683 18.1007 17.5 18.4186 17.5 18.7501V25.0001ZM23.75 23.7501C23.75 24.0816 23.6183 24.3996 23.3839 24.634C23.1495 24.8684 22.8315 25.0001 22.5 25.0001H20V18.7501C20 17.7556 19.6049 16.8017 18.9016 16.0985C18.1984 15.3952 17.2446 15.0001 16.25 15.0001H13.75C12.7554 15.0001 11.8016 15.3952 11.0983 16.0985C10.3951 16.8017 10 17.7556 10 18.7501V25.0001H7.5C7.16848 25.0001 6.85053 24.8684 6.61611 24.634C6.38169 24.3996 6.25 24.0816 6.25 23.7501V12.8126C6.25022 12.6351 6.28824 12.4598 6.36152 12.2981C6.4348 12.1365 6.54166 11.9923 6.675 11.8751L14.175 5.31263C14.4031 5.11223 14.6964 5.00171 15 5.00171C15.3036 5.00171 15.5969 5.11223 15.825 5.31263L23.325 11.8751C23.4583 11.9923 23.5652 12.1365 23.6385 12.2981C23.7118 12.4598 23.7498 12.6351 23.75 12.8126V23.7501Z" fill="#BFBFBF"/>
</svg>
