<svg width="30" height="30" viewBox="0 0 30 30" fill="none" xmlns="http://www.w3.org/2000/svg">
<path d="M22.5 5.60001C20.5109 3.61089 17.813 2.49341 15 2.49341C12.187 2.49341 9.48913 3.61089 7.5 5.60001C5.51088 7.58913 4.3934 10.287 4.3934 13.1C4.3934 15.9131 5.51088 18.6109 7.5 20.6L14.0875 27.2C14.2037 27.3172 14.342 27.4102 14.4943 27.4736C14.6466 27.5371 14.81 27.5698 14.975 27.5698C15.14 27.5698 15.3034 27.5371 15.4557 27.4736C15.608 27.4102 15.7463 27.3172 15.8625 27.2L22.5 20.5375C24.4808 18.5567 25.5936 15.8701 25.5936 13.0688C25.5936 10.2674 24.4808 7.58086 22.5 5.60001V5.60001ZM20.7125 18.75L15 24.4875L9.2875 18.75C8.15893 17.6204 7.3906 16.1816 7.07962 14.6154C6.76865 13.0492 6.92899 11.4259 7.54038 9.95086C8.15178 8.47578 9.18677 7.21507 10.5145 6.32811C11.8423 5.44114 13.4032 4.96774 15 4.96774C16.5968 4.96774 18.1577 5.44114 19.4855 6.32811C20.8132 7.21507 21.8482 8.47578 22.4596 9.95086C23.071 11.4259 23.2314 13.0492 22.9204 14.6154C22.6094 16.1816 21.8411 17.6204 20.7125 18.75V18.75ZM11.25 9.26251C10.2409 10.2747 9.67425 11.6457 9.67425 13.075C9.67425 14.5043 10.2409 15.8753 11.25 16.8875C11.9997 17.6385 12.9545 18.1514 13.9946 18.3618C15.0346 18.5722 16.1137 18.4707 17.0963 18.0702C18.079 17.6697 18.9215 16.9879 19.5181 16.1103C20.1147 15.2328 20.4389 14.1986 20.45 13.1375C20.4556 12.429 20.3192 11.7266 20.0486 11.0717C19.7781 10.4169 19.379 9.82295 18.875 9.32501C18.3796 8.81823 17.7889 8.41443 17.1368 8.13684C16.4847 7.85925 15.7842 7.71335 15.0755 7.70755C14.3668 7.70174 13.664 7.83613 13.0075 8.103C12.3509 8.36986 11.7537 8.76392 11.25 9.26251V9.26251ZM17.1125 15.1125C16.6388 15.5934 16.0128 15.8949 15.3414 15.9653C14.6701 16.0358 13.9951 15.8708 13.4319 15.4987C12.8687 15.1265 12.4523 14.5703 12.2538 13.9251C12.0553 13.2799 12.0871 12.5858 12.3437 11.9615C12.6003 11.3371 13.0659 10.8213 13.6607 10.5022C14.2556 10.1831 14.9428 10.0805 15.6049 10.212C16.267 10.3435 16.8629 10.701 17.2906 11.2232C17.7184 11.7454 17.9515 12.4 17.95 13.075C17.9318 13.8466 17.6081 14.5794 17.05 15.1125H17.1125Z" fill="#BFBFBF"/>
</svg>
