<svg width="29" height="29" viewBox="0 0 29 29" fill="none" xmlns="http://www.w3.org/2000/svg">
<path fill-rule="evenodd" clip-rule="evenodd" d="M20.5384 17.9201C19.572 16.8218 17.9605 16.5263 16.7498 17.5321C15.539 18.5379 15.3685 20.2195 16.3194 21.409C17.2702 22.5985 20.5384 25.3748 20.5384 25.3748C20.5384 25.3748 23.8065 22.5985 24.7574 21.409C25.7082 20.2195 25.5585 18.5273 24.3269 17.5321C23.0954 16.5369 21.5047 16.8218 20.5384 17.9201Z" fill="#FEEAE3"/>
<path d="M24.1667 12.0832V8.2165C24.1667 6.18631 24.1667 5.17122 23.7716 4.39579C23.424 3.7137 22.8695 3.15915 22.1874 2.81161C21.412 2.4165 20.3969 2.4165 18.3667 2.4165H10.6333C8.60315 2.4165 7.58805 2.4165 6.81262 2.81161C6.13053 3.15915 5.57598 3.7137 5.22844 4.39579C4.83334 5.17122 4.83334 6.18631 4.83334 8.2165V20.7832C4.83334 22.8134 4.83334 23.8285 5.22844 24.6039C5.57598 25.286 6.13053 25.8405 6.81262 26.1881C7.58805 26.5832 8.60315 26.5832 10.6333 26.5832H14.5M15.1042 13.2915H9.66667M10.875 18.1248H9.66667M19.3333 8.45817H9.66667M20.5384 17.9201C19.572 16.8218 17.9605 16.5263 16.7498 17.5321C15.539 18.5379 15.3685 20.2195 16.3194 21.409C17.2702 22.5985 20.5384 25.3748 20.5384 25.3748C20.5384 25.3748 23.8065 22.5985 24.7574 21.409C25.7082 20.2195 25.5585 18.5273 24.3269 17.5321C23.0954 16.5369 21.5047 16.8218 20.5384 17.9201Z" stroke="#F97345" stroke-width="2.5" stroke-linecap="round" stroke-linejoin="round"/>
</svg>
