<svg width="32" height="32" viewBox="0 0 32 32" fill="none" xmlns="http://www.w3.org/2000/svg">
<path d="M0 16C0 7.16347 7.16347 0 16 0C24.8365 0 32 7.16347 32 16C32 24.8365 24.8365 32 16 32C7.16347 32 0 24.8365 0 16Z" fill="#FFE812"/>
<path d="M16 7.33337C10.1089 7.33337 5.33334 11.0988 5.33334 15.7436C5.33334 18.7466 7.32988 21.3816 10.3331 22.8695C10.1697 23.433 9.28321 26.4945 9.24788 26.735C9.24788 26.735 9.22668 26.9157 9.34368 26.9846C9.46074 27.0536 9.59834 27 9.59834 27C9.93394 26.9532 13.4899 24.4553 14.1055 24.0216C14.7203 24.1086 15.3535 24.1539 16 24.1539C21.8911 24.1539 26.6667 20.3886 26.6667 15.7436C26.6667 11.0988 21.8911 7.33337 16 7.33337Z" fill="#111111"/>
<path fill-rule="evenodd" clip-rule="evenodd" d="M10.1025 18.6796C9.76313 18.6796 9.48713 18.416 9.48713 18.0918V14.436H8.52693C8.19393 14.436 7.92307 14.1656 7.92307 13.8334C7.92307 13.5012 8.194 13.2308 8.52693 13.2308H11.6781C12.0111 13.2308 12.282 13.5012 12.282 13.8334C12.282 14.1656 12.0111 14.436 11.6781 14.436H10.7179V18.0918C10.7179 18.416 10.4419 18.6796 10.1025 18.6796ZM15.4986 18.6716C15.242 18.6716 15.0457 18.5674 14.9865 18.3998L14.6818 17.602L12.8053 17.6019L12.5004 18.4002C12.4414 18.5674 12.2452 18.6716 11.9886 18.6716C11.8536 18.6717 11.7201 18.6427 11.5974 18.5866C11.4277 18.5084 11.2647 18.2932 11.4515 17.7128L12.9235 13.8383C13.0273 13.5436 13.3422 13.24 13.7431 13.2309C14.145 13.24 14.4599 13.5436 14.5639 13.8389L16.0353 17.7116C16.2225 18.2934 16.0595 18.5087 15.8898 18.5867C15.767 18.6427 15.6336 18.6716 15.4986 18.6716ZM13.7435 14.7658L14.3582 16.512H13.1289L13.7435 14.7658ZM17.0256 18.5898C16.7003 18.5898 16.4359 18.3367 16.4359 18.0257V13.8462C16.4359 13.5068 16.7177 13.2308 17.0641 13.2308C17.4104 13.2308 17.6923 13.5068 17.6923 13.8462V17.4616H18.9999C19.3252 17.4616 19.5897 17.7147 19.5897 18.0257C19.5897 18.3367 19.3252 18.5898 18.9999 18.5898H17.0256ZM19.8291 18.0562C19.8291 18.3956 20.1051 18.6716 20.4445 18.6716C20.6077 18.6713 20.7641 18.6064 20.8795 18.491C20.9949 18.3756 21.0599 18.2191 21.0601 18.0558V16.7132L21.2736 16.4996L22.7168 18.4118C22.7739 18.4882 22.8481 18.55 22.9335 18.5926C23.0189 18.635 23.113 18.6569 23.2083 18.6565C23.3421 18.6568 23.4721 18.6132 23.5785 18.5322C23.6432 18.4838 23.6976 18.423 23.7386 18.3533C23.7795 18.2836 23.8063 18.2065 23.8173 18.1264C23.8288 18.0464 23.8243 17.9649 23.8039 17.8866C23.7837 17.8084 23.7481 17.7349 23.6991 17.6705L22.1843 15.6638L23.5867 14.2616C23.6831 14.1651 23.7315 14.032 23.7225 13.8869C23.7137 13.743 23.6494 13.6045 23.5416 13.4968C23.426 13.3813 23.2717 13.315 23.1181 13.315C22.9864 13.315 22.8651 13.3636 22.7768 13.452L21.0599 15.1689V13.8462C21.0599 13.5068 20.7839 13.2308 20.4445 13.2308C20.1051 13.2308 19.8291 13.5068 19.8291 13.8462V18.0562Z" fill="#FFE812"/>
</svg>
