<svg width="18" height="22" viewBox="0 0 18 22" fill="none" xmlns="http://www.w3.org/2000/svg">
<path d="M8.82078 11.5C8.84079 11.33 8.86078 11.17 8.86078 11C8.86078 10.83 8.84079 10.67 8.82078 10.5L9.90078 9.69C10.0008 9.62 10.0008 9.5 9.96078 9.37L8.93079 7.64C8.87078 7.53 8.73078 7.5 8.62078 7.53L7.34079 8.03C7.07079 7.83 6.78079 7.67 6.47079 7.54L6.27079 6.21C6.27079 6.09 6.16079 6 6.03079 6H4.00079C3.85079 6 3.74079 6.09 3.72079 6.21L3.50079 7.53C3.21079 7.65 2.92079 7.83 2.65079 8L1.37079 7.5C1.25079 7.47 1.12079 7.5 1.06079 7.63L0.0307852 9.36C-0.0292148 9.5 0.000785269 9.61 0.100785 9.69L1.18079 10.5C1.16079 10.67 1.15079 10.84 1.15079 11C1.15079 11.17 1.17079 11.33 1.19079 11.5L0.100785 12.32C0.000785269 12.39 0.000785209 12.53 0.0407852 12.64L1.07079 14.37C1.13079 14.5 1.27079 14.5 1.38079 14.5L2.66079 14C2.93079 14.18 3.22079 14.34 3.53079 14.47L3.73079 15.79C3.74079 15.91 3.85079 16 4.00079 16H6.04079C6.17079 16 6.28079 15.91 6.29079 15.79L6.50079 14.47C6.80079 14.35 7.09079 14.17 7.36079 14L8.64079 14.5C8.76079 14.53 8.89078 14.5 8.95078 14.37L10.0008 12.64C10.0408 12.53 10.0008 12.4 9.92078 12.32L8.82078 11.5ZM5.00079 12.75C4.00079 12.75 3.20079 11.97 3.20079 11C3.20079 10.03 4.00079 9.25 5.00079 9.25C6.00079 9.25 6.80079 10.03 6.80079 11C6.80079 11.97 6.00079 12.75 5.00079 12.75ZM16.0008 0H6.00079C5.47035 0 4.96164 0.210714 4.58657 0.585786C4.2115 0.960859 4.00079 1.46957 4.00079 2V5H6.00079V3H16.0008V19H6.00079V17H4.00079V20C4.00079 20.5304 4.2115 21.0391 4.58657 21.4142C4.96164 21.7893 5.47035 22 6.00079 22H16.0008C16.5312 22 17.0399 21.7893 17.415 21.4142C17.7901 21.0391 18.0008 20.5304 18.0008 20V2C18.0008 1.46957 17.7901 0.960859 17.415 0.585786C17.0399 0.210714 16.5312 0 16.0008 0Z" fill="black"/>
</svg>
