<svg width="36" height="36" viewBox="0 0 36 36" fill="none" xmlns="http://www.w3.org/2000/svg">
<circle cx="17.6777" cy="17.6777" r="12.5" transform="rotate(45 17.6777 17.6777)" fill="#D9D9D9"/>
<path d="M20.1133 21.5275C20.5038 21.9181 21.137 21.9181 21.5275 21.5275C21.9181 21.137 21.9181 20.5038 21.5275 20.1133L20.1133 21.5275ZM15.2421 13.8279C14.8516 13.4374 14.2185 13.4374 13.8279 13.8279C13.4374 14.2184 13.4374 14.8516 13.8279 15.2421L15.2421 13.8279ZM21.5275 15.2421C21.9181 14.8516 21.9181 14.2184 21.5275 13.8279C21.137 13.4374 20.5038 13.4374 20.1133 13.8279L21.5275 15.2421ZM13.8279 20.1133C13.4374 20.5038 13.4374 21.137 13.8279 21.5275C14.2185 21.9181 14.8516 21.9181 15.2421 21.5275L13.8279 20.1133ZM21.5275 20.1133L15.2421 13.8279L13.8279 15.2421L20.1133 21.5275L21.5275 20.1133ZM20.1133 13.8279L13.8279 20.1133L15.2421 21.5275L21.5275 15.2421L20.1133 13.8279Z" fill="#F8F7FF"/>
</svg>
