<svg width="60" height="60" viewBox="0 0 60 60" fill="none" xmlns="http://www.w3.org/2000/svg">
<rect width="60" height="60" rx="20" fill="url(#paint0_linear_251_263)"/>
<path d="M11.5754 22.2201V23.2801H19.9554V22.2201H11.5754ZM15.1054 20.8301V22.6301H16.4254V20.8301H15.1054ZM12.5854 20.4101V21.4601H19.0054V20.4101H12.5854ZM12.5854 18.2701V21.0801H13.9054V19.3101H18.9554V18.2701H12.5854ZM15.7354 23.7401C13.7354 23.7401 12.5154 24.3501 12.5154 25.4401C12.5154 26.5301 13.7354 27.1401 15.7354 27.1401C17.7354 27.1401 18.9454 26.5301 18.9454 25.4401C18.9454 24.3501 17.7354 23.7401 15.7354 23.7401ZM15.7354 24.7401C16.9754 24.7401 17.6054 24.9701 17.6054 25.4401C17.6054 25.9201 16.9754 26.1301 15.7354 26.1301C14.4954 26.1301 13.8654 25.9201 13.8654 25.4401C13.8654 24.9701 14.4954 24.7401 15.7354 24.7401Z" fill="white"/>
<path d="M21.2147 18.7501V24.1301H22.5347V18.7501H21.2147ZM21.2147 23.7901V24.9201H21.8647C23.0447 24.9201 24.0447 24.8801 25.1547 24.6401L24.9847 23.5301C23.9147 23.7501 22.9847 23.7901 21.8647 23.7901H21.2147ZM27.5747 17.8701V27.1301H28.8447V17.8701H27.5747ZM23.7947 20.7901V21.8601H25.9047V20.7901H23.7947ZM25.6147 18.0301V26.7201H26.8547V18.0301H25.6147Z" fill="white"/>
<path d="M36.5239 17.8801V24.5301H37.8639V17.8801H36.5239ZM31.6939 25.9101V26.9701H38.0939V25.9101H31.6939ZM31.6939 23.8601V26.3401H33.0239V23.8601H31.6939ZM32.8239 18.4601C31.4039 18.4601 30.3039 19.4401 30.3039 20.8101C30.3039 22.1701 31.4039 23.1601 32.8239 23.1601C34.2439 23.1601 35.3339 22.1701 35.3339 20.8101C35.3339 19.4401 34.2439 18.4601 32.8239 18.4601ZM32.8239 19.6101C33.5039 19.6101 34.0339 20.0501 34.0339 20.8101C34.0339 21.5601 33.5039 22.0001 32.8239 22.0001C32.1339 22.0001 31.6039 21.5601 31.6039 20.8101C31.6039 20.0501 32.1339 19.6101 32.8239 19.6101Z" fill="white"/>
<path d="M39.4631 22.1401V23.1901H47.8331V22.1401H39.4631ZM43.6331 23.7001C41.6331 23.7001 40.4131 24.3301 40.4131 25.4201C40.4131 26.5101 41.6331 27.1301 43.6331 27.1301C45.6331 27.1301 46.8431 26.5101 46.8431 25.4201C46.8431 24.3301 45.6331 23.7001 43.6331 23.7001ZM43.6331 24.7301C44.8731 24.7301 45.5031 24.9401 45.5031 25.4201C45.5031 25.8901 44.8731 26.1101 43.6331 26.1101C42.3931 26.1101 41.7631 25.8901 41.7631 25.4201C41.7631 24.9401 42.3931 24.7301 43.6331 24.7301ZM42.7331 18.8201V19.0501C42.7331 19.7701 41.8431 20.5801 39.8131 20.7601L40.2731 21.7901C42.6631 21.5801 43.9131 20.4301 43.9131 19.0501V18.8201H42.7331ZM43.3831 18.8201V19.0501C43.3831 20.4401 44.6431 21.5801 47.0231 21.7901L47.4831 20.7601C45.4431 20.5801 44.5631 19.7701 44.5631 19.0501V18.8201H43.3831ZM40.2231 18.3001V19.3501H47.0831V18.3001H40.2231Z" fill="white"/>
<path d="M18.7268 32.8701V42.1301H20.0668V32.8701H18.7268ZM19.7668 36.3201V37.4201H21.4068V36.3201H19.7668ZM13.0868 33.6001V39.9901H17.5868V33.6001H16.2668V35.8501H14.4068V33.6001H13.0868ZM14.4068 36.8801H16.2668V38.9201H14.4068V36.8801Z" fill="white"/>
<path d="M22.1161 40.0301V41.1101H30.4961V40.0301H22.1161ZM25.6261 38.2801V40.4701H26.9561V38.2801H25.6261ZM23.0561 33.4701V34.5201H28.2361V35.5101H23.0761V38.1101H24.3961V36.5501H29.5561V33.4701H23.0561ZM23.0761 37.5801V38.6501H29.7661V37.5801H23.0761Z" fill="white"/>
<path d="M37.3253 32.8601V42.1201H38.6653V32.8601H37.3253ZM38.3153 36.4001V37.4901H39.9453V36.4001H38.3153ZM34.8953 33.8201V34.0501C34.8953 36.5601 33.7453 38.2601 31.3153 39.5201L32.0553 40.5301C35.1353 38.9801 36.1953 36.6001 36.1953 33.8201H34.8953ZM31.8253 33.8201V34.8901H35.5753V33.8201H31.8253Z" fill="white"/>
<path d="M47.0845 32.8701V42.1301H48.4245V32.8701H47.0845ZM44.3545 33.8301V34.0701C44.3545 36.5501 43.3945 38.2301 40.7345 39.5101L41.4245 40.5701C44.7145 38.9801 45.6745 36.6601 45.6745 33.8301H44.3545ZM41.2245 33.8301V34.8801H44.9845V33.8301H41.2245Z" fill="white"/>
<defs>
<linearGradient id="paint0_linear_251_263" x1="0" y1="30" x2="60" y2="30" gradientUnits="userSpaceOnUse">
<stop stop-color="#FF981C"/>
<stop offset="1" stop-color="#F77145"/>
</linearGradient>
</defs>
</svg>
