<svg width="141" height="141" viewBox="0 0 141 141" fill="none" xmlns="http://www.w3.org/2000/svg">
<g clip-path="url(#clip0_260_836)">
<path d="M25.3323 44.9216L29.1644 41.0158C33.4386 36.7415 40.5132 36.7415 44.9349 41.3106L45.0822 41.5317C48.6932 45.2163 53.4834 46.985 58.7156 47.5009C65.8639 48.1641 72.7912 51.9962 77.3602 58.9234C82.3714 66.8824 82.2977 77.4943 77.0654 85.3795C68.2221 99.0129 49.725 100.487 38.892 89.4327C34.7651 85.3795 32.4069 80.1473 31.8173 74.6939C31.2278 69.3143 29.0907 64.2294 25.3323 60.471C21.058 56.2704 21.058 49.1958 25.3323 44.9216ZM56.2837 104.171C47.6615 104.171 39.6289 100.855 33.6597 94.7387C28.5011 89.4327 25.2586 82.8002 24.448 75.5782C24.2269 73.3674 23.5636 70.4934 21.795 67.8404C17.3733 73.957 14.7204 81.3264 14.7204 89.4327C14.7204 101.518 20.6159 112.204 29.6802 118.91H125.261V111.541C125.261 85.0111 107.648 62.5344 83.5505 55.165C90.1092 65.4822 89.9618 79.2629 83.2557 89.4327C77.3602 98.6444 67.1904 104.171 56.2837 104.171ZM94.1624 41.9738H103.522C109.933 41.9738 115.534 46.4691 115.534 54.5018V59.9551H124.745V52.5857C124.745 41.5317 114.944 33.1305 103.522 33.1305H94.1624C88.0458 33.1305 82.8135 27.0876 82.8135 20.8974C82.8135 14.7071 88.0458 10.138 94.1624 10.138V1C82.8135 1 73.6755 10.138 73.6755 21.4869C73.6755 32.8358 82.8135 41.9738 94.1624 41.9738ZM18.4051 41.9001C18.8472 41.1632 19.4368 40.4262 20.1 39.6893L23.9321 35.8572C24.5953 35.194 25.3323 34.6781 26.0692 34.1623L15.6784 23.624C16.7101 21.6343 16.3416 19.055 14.7204 17.36C12.5095 15.2229 8.97223 15.2229 6.83511 17.36C5.8034 18.3918 5.28754 19.6446 5.21384 20.9711C3.88735 21.0447 2.63456 21.5606 1.60284 22.5923C-0.534281 24.7294 -0.534281 28.2667 1.60284 30.4776C3.2978 32.0988 5.80339 32.4673 7.86682 31.4356L18.4051 41.9001ZM120.766 18.6128C124.524 14.8545 126.882 9.76958 126.882 4.09514H117.671C117.671 10.2117 112.512 15.3703 106.396 15.3703V24.5084C120.103 24.5084 130.862 35.7098 130.862 49.4169V67.3245H140V49.4169C140 35.7835 132.188 24.0662 120.766 18.6128ZM22.0897 141.018H125.261C133.441 141.018 140 134.46 140 126.28H7.35097C7.35097 134.46 13.9834 141.018 22.0897 141.018Z" fill="url(#paint0_linear_260_836)"/>
</g>
<defs>
<linearGradient id="paint0_linear_260_836" x1="70" y1="1" x2="70" y2="141.018" gradientUnits="userSpaceOnUse">
<stop stop-color="#F87245"/>
<stop offset="1" stop-color="#FF991D"/>
</linearGradient>
<clipPath id="clip0_260_836">
<rect width="141" height="141" fill="white"/>
</clipPath>
</defs>
</svg>
