<svg width="12" height="12" viewBox="0 0 12 12" fill="none" xmlns="http://www.w3.org/2000/svg">
<circle cx="6" cy="6" r="6" fill="#2E3240" fill-opacity="0.85"/>
<path fill-rule="evenodd" clip-rule="evenodd" d="M3.99996 3.99995C3.81587 4.18404 3.81587 4.48252 3.99996 4.66662L5.33331 5.99997L3.99992 7.33337C3.81582 7.51746 3.81582 7.81594 3.99992 8.00004C4.18401 8.18413 4.48249 8.18413 4.66659 8.00004L5.99998 6.66664L7.33331 7.99997C7.51741 8.18407 7.81589 8.18407 7.99999 7.99997C8.18408 7.81587 8.18408 7.5174 7.99998 7.3333L6.66666 5.99997L7.99994 4.66668C8.18404 4.48259 8.18404 4.18411 7.99994 4.00001C7.81584 3.81592 7.51737 3.81592 7.33327 4.00001L5.99998 5.3333L4.66663 3.99995C4.48254 3.81585 4.18406 3.81585 3.99996 3.99995Z" fill="white"/>
</svg>
