<svg width="24" height="24" viewBox="0 0 24 24" fill="none" xmlns="http://www.w3.org/2000/svg">
<rect width="24" height="24" rx="12" fill="#F5F5F5"/>
<path d="M12.0001 13.75C10.1509 13.75 8.50637 14.6429 7.45941 16.0285C7.23407 16.3267 7.1214 16.4758 7.12509 16.6773C7.12793 16.833 7.2257 17.0294 7.34821 17.1256C7.50677 17.25 7.7265 17.25 8.16596 17.25H15.8342C16.2737 17.25 16.4934 17.25 16.6519 17.1256C16.7744 17.0294 16.8722 16.833 16.8751 16.6773C16.8788 16.4758 16.7661 16.3267 16.5407 16.0285C15.4938 14.6429 13.8493 13.75 12.0001 13.75Z" fill="#DDDDDD"/>
<path d="M12.0001 12C13.4498 12 14.6251 10.8247 14.6251 9.375C14.6251 7.92525 13.4498 6.75 12.0001 6.75C10.5503 6.75 9.37508 7.92525 9.37508 9.375C9.37508 10.8247 10.5503 12 12.0001 12Z" fill="#DDDDDD"/>
<path d="M12.0001 13.75C10.1509 13.75 8.50637 14.6429 7.45941 16.0285C7.23407 16.3267 7.1214 16.4758 7.12509 16.6773C7.12793 16.833 7.2257 17.0294 7.34821 17.1256C7.50677 17.25 7.7265 17.25 8.16596 17.25H15.8342C16.2737 17.25 16.4934 17.25 16.6519 17.1256C16.7744 17.0294 16.8722 16.833 16.8751 16.6773C16.8788 16.4758 16.7661 16.3267 16.5407 16.0285C15.4938 14.6429 13.8493 13.75 12.0001 13.75Z" stroke="#DDDDDD" stroke-linecap="round" stroke-linejoin="round"/>
<path d="M12.0001 12C13.4498 12 14.6251 10.8247 14.6251 9.375C14.6251 7.92525 13.4498 6.75 12.0001 6.75C10.5503 6.75 9.37508 7.92525 9.37508 9.375C9.37508 10.8247 10.5503 12 12.0001 12Z" stroke="#DDDDDD" stroke-linecap="round" stroke-linejoin="round"/>
</svg>
