<svg width="55" height="55" viewBox="0 0 55 55" fill="none" xmlns="http://www.w3.org/2000/svg">
<path d="M27.5 0.416504C22.2471 0.426484 17.1105 1.9638 12.7158 4.84121C8.32114 7.71862 4.85805 11.8119 2.74838 16.6225C0.638714 21.4332 -0.0264812 26.7535 0.833821 31.9354C1.69412 37.1174 4.04279 41.9373 7.59375 45.8082V45.8082C10.1299 48.5573 13.208 50.7512 16.634 52.2519C20.06 53.7525 23.7597 54.5272 27.5 54.5272C31.2403 54.5272 34.94 53.7525 38.366 52.2519C41.792 50.7512 44.8701 48.5573 47.4063 45.8082V45.8082C50.9572 41.9373 53.3059 37.1174 54.1662 31.9354C55.0265 26.7535 54.3613 21.4332 52.2516 16.6225C50.142 11.8119 46.6789 7.71862 42.2842 4.84121C37.8895 1.9638 32.7529 0.426484 27.5 0.416504V0.416504ZM27.5 49.1665C21.8896 49.158 16.5012 46.9735 12.4688 43.0728C13.693 40.0923 15.7757 37.5431 18.4521 35.7491C21.1286 33.9551 24.2779 32.9972 27.5 32.9972C30.7221 32.9972 33.8714 33.9551 36.5479 35.7491C39.2243 37.5431 41.307 40.0923 42.5312 43.0728C38.4988 46.9735 33.1104 49.158 27.5 49.1665ZM22.0833 22.0832C22.0833 21.0119 22.401 19.9646 22.9962 19.0738C23.5914 18.1831 24.4374 17.4888 25.4271 17.0788C26.4169 16.6688 27.506 16.5616 28.5567 16.7706C29.6075 16.9796 30.5726 17.4955 31.3302 18.253C32.0877 19.0105 32.6036 19.9757 32.8126 21.0264C33.0216 22.0772 32.9143 23.1663 32.5043 24.156C32.0944 25.1458 31.4001 25.9918 30.5093 26.587C29.6186 27.1822 28.5713 27.4998 27.5 27.4998C26.0634 27.4998 24.6857 26.9292 23.6698 25.9133C22.654 24.8975 22.0833 23.5198 22.0833 22.0832ZM46.2146 38.3332C43.7948 34.1942 40.0705 30.9747 35.625 29.179C37.004 27.6154 37.9025 25.687 38.2127 23.6254C38.523 21.5638 38.2317 19.4564 37.3739 17.5562C36.5161 15.656 35.1283 14.0436 33.3768 12.9127C31.6254 11.7817 29.5848 11.1801 27.5 11.1801C25.4152 11.1801 23.3746 11.7817 21.6232 12.9127C19.8717 14.0436 18.4839 15.656 17.6261 17.5562C16.7683 19.4564 16.477 21.5638 16.7873 23.6254C17.0975 25.687 17.996 27.6154 19.375 29.179C14.9295 30.9747 11.2052 34.1942 8.78542 38.3332C6.85693 35.0482 5.83799 31.309 5.83333 27.4998C5.83333 21.7535 8.11607 16.2425 12.1794 12.1792C16.2426 8.1159 21.7536 5.83317 27.5 5.83317C33.2464 5.83317 38.7574 8.1159 42.8206 12.1792C46.8839 16.2425 49.1667 21.7535 49.1667 27.4998C49.162 31.309 48.1431 35.0482 46.2146 38.3332V38.3332Z" fill="#BFBFBF"/>
</svg>
