<svg width="24" height="24" viewBox="0 0 24 24" fill="none" xmlns="http://www.w3.org/2000/svg">
<path fill-rule="evenodd" clip-rule="evenodd" d="M7.11298 11.1049C7.14871 11.0716 7.19114 11.0453 7.23786 11.0273C7.28459 11.0093 7.33467 11 7.38526 11C7.43584 11 7.48593 11.0093 7.53265 11.0273C7.57937 11.0453 7.62181 11.0716 7.65753 11.1049L12.0001 15.1374L16.3427 11.1049C16.3784 11.0717 16.4209 11.0454 16.4676 11.0274C16.5143 11.0094 16.5644 11.0002 16.6149 11.0002C16.6655 11.0002 16.7156 11.0094 16.7623 11.0274C16.809 11.0454 16.8515 11.0717 16.8872 11.1049C16.923 11.1381 16.9513 11.1775 16.9707 11.2209C16.99 11.2643 17 11.3107 17 11.3577C17 11.4046 16.99 11.4511 16.9707 11.4945C16.9513 11.5379 16.923 11.5773 16.8872 11.6105L12.2724 15.8951C12.2367 15.9284 12.1942 15.9547 12.1475 15.9727C12.1008 15.9907 12.0507 16 12.0001 16C11.9495 16 11.8994 15.9907 11.8527 15.9727C11.806 15.9547 11.7635 15.9284 11.7278 15.8951L7.11298 11.6105C7.07717 11.5773 7.04875 11.5379 7.02937 11.4945C7.00998 11.4512 7 11.4047 7 11.3577C7 11.3107 7.00998 11.2642 7.02937 11.2208C7.04875 11.1775 7.07717 11.1381 7.11298 11.1049Z" fill="#111111"/>
</svg>
