<svg width="24" height="24" viewBox="0 0 24 24" fill="none" xmlns="http://www.w3.org/2000/svg">
<path d="M9.45646 19.8943V17.1342C9.45644 16.4322 10.0254 15.8617 10.7304 15.857H13.3127C14.021 15.857 14.5952 16.4288 14.5952 17.1342V19.9028C14.595 20.4989 15.0728 20.986 15.6711 21H17.3927C19.1088 21 20.5 19.6146 20.5 17.9056V10.0541C20.4908 9.38174 20.1738 8.75041 19.6392 8.33973L13.7516 3.61677C12.7202 2.79441 11.254 2.79441 10.2225 3.61677L4.36076 8.3483C3.82413 8.75732 3.50661 9.3897 3.5 10.0626V17.9056C3.5 19.6146 4.8912 21 6.60734 21H8.32886C8.94211 21 9.43924 20.5049 9.43924 19.8943" stroke="#F77145" stroke-width="1.5" stroke-linecap="round" stroke-linejoin="round"/>
</svg>
