<svg width="16" height="16" viewBox="0 0 16 16" fill="none" xmlns="http://www.w3.org/2000/svg">
<g clip-path="url(#clip0_106_648)">
<path fill-rule="evenodd" clip-rule="evenodd" d="M10.1259 13.8644C10.086 13.8216 10.0543 13.7706 10.0327 13.7146C10.0111 13.6585 10 13.5984 10 13.5377C10 13.477 10.0111 13.4169 10.0327 13.3608C10.0543 13.3048 10.086 13.2538 10.1259 13.211L14.9649 7.99988L10.1259 2.7888C10.086 2.74589 10.0544 2.69495 10.0329 2.63889C10.0113 2.58283 10.0002 2.52275 10.0002 2.46207C10.0002 2.40139 10.0113 2.3413 10.0329 2.28524C10.0544 2.22918 10.086 2.17824 10.1259 2.13534C10.1657 2.09243 10.213 2.05839 10.2651 2.03517C10.3171 2.01195 10.3729 2 10.4292 2C10.4856 2 10.5414 2.01195 10.5934 2.03517C10.6454 2.05839 10.6927 2.09243 10.7326 2.13534L15.8741 7.67315C15.914 7.71602 15.9457 7.76694 15.9673 7.82301C15.9889 7.87907 16 7.93918 16 7.99988C16 8.06058 15.9889 8.12068 15.9673 8.17675C15.9457 8.23282 15.914 8.28374 15.8741 8.32661L10.7326 13.8644C10.6928 13.9074 10.6455 13.9415 10.5934 13.9648C10.5414 13.988 10.4856 14 10.4292 14C10.3729 14 10.3171 13.988 10.265 13.9648C10.213 13.9415 10.1657 13.9074 10.1259 13.8644Z" fill="#999999"/>
</g>
<defs>
<clipPath id="clip0_106_648">
<rect width="16" height="16" fill="white" transform="translate(0 16) rotate(-90)"/>
</clipPath>
</defs>
</svg>
